<svg id="Lager_1" data-name="Lager 1" xmlns="http://www.w3.org/2000/svg" viewBox="0 0 267 144"><defs><style>.cls-1{fill:#265852;}</style></defs><title>Rityta 1</title><path class="cls-1" d="M20.39,43.94c0-6.47,7.16-10.81,12.91-10.81,6.75,0,11.28,4.34,11.28,10.81V69.21H55.46V41.78c0-9.15-6.49-19-20.74-19-5.16,0-11.23,1.89-14.34,4.89V8.24L9.51,9.43V69.21H20.39Z"/><path class="cls-1" d="M84.66,69.75a23,23,0,0,0,23.48-23.48A23,23,0,0,0,84.66,22.79,23,23,0,0,0,61.18,46.27,23,23,0,0,0,84.66,69.75Zm0-36.45c7.32,0,12.43,5.33,12.43,13s-5.11,13-12.43,13-12.43-5.33-12.43-13S77.35,33.31,84.66,33.31Z"/><path class="cls-1" d="M175,41.78V69.21h10.88V39.27c0-7.6-4.77-16.48-18.22-16.48a22.37,22.37,0,0,0-15.48,5.9c-2.57-3.71-7.31-5.9-12.84-5.9-4.74,0-10.06,2-12.86,4.82V23.33H115.6V69.21h10.87V41.78c0-5.42,4.67-8.66,9.18-8.66,4.72,0,9.49,3,9.49,8.66V69.21H156V41.78c0-5.35,4.93-8.66,9.49-8.66S175,35.84,175,41.78Z"/><path class="cls-1" d="M217,69.75c10.26,0,19.25-5.61,22.37-14l.25-.67H226.85l-.15.23C225,58,221.52,59.42,217,59.42a12.3,12.3,0,0,1-12-9.23h34.72l.07-.42a21.67,21.67,0,0,0,.28-3.49,23.3,23.3,0,1,0-46.6,0A23.28,23.28,0,0,0,217,69.75ZM205.46,40.39a12.21,12.21,0,0,1,22.48,0Z"/><path class="cls-1" d="M33.18,90.79a19,19,0,0,0-12.7,4.5v-19L9.61,77.43v59.79H20.48v-4a19.05,19.05,0,0,0,12.7,4.57c13.83,0,22.76-9.22,22.76-23.48S47,90.79,33.18,90.79Zm-.45,10.51c7.37,0,12.52,5.33,12.52,13s-5.15,13-12.52,13-12.43-5.33-12.43-13S25.42,101.31,32.73,101.31Z"/><path class="cls-1" d="M84.5,90.79a23.48,23.48,0,1,0,0,47,23.48,23.48,0,1,0,0-47Zm0,36.45c-7.32,0-12.43-5.33-12.43-13s5.11-13,12.43-13,12.43,5.33,12.43,13S91.82,127.24,84.5,127.24Z"/><path class="cls-1" d="M144.07,116.61c0,6.77-3.5,10.81-9.37,10.81-6.33,0-9.28-3.44-9.28-10.81V91.33H114.53v27.43c0,12.25,6.3,19,17.74,19a15.82,15.82,0,0,0,11.8-4.8v4.26h10.87V91.33H144.07Z"/><path class="cls-1" d="M186.91,90.79a15.82,15.82,0,0,0-11.8,4.8V91.33H164.24v45.88h10.87V111.94c0-6.77,3.5-10.81,9.38-10.81,6.33,0,9.28,3.44,9.28,10.81v25.28h10.88V109.79C204.64,97.54,198.35,90.79,186.91,90.79Z"/><path class="cls-1" d="M247.81,77.43V95.29a19,19,0,0,0-12.7-4.5c-13.83,0-22.76,9.22-22.76,23.48s8.93,23.48,22.76,23.48a19.05,19.05,0,0,0,12.7-4.57v4h10.87v-61Zm.18,36.84c0,7.63-5.11,13-12.43,13s-12.52-5.33-12.52-13,5.15-13,12.52-13S248,106.64,248,114.27Z"/></svg>